<svg width="331" height="82" viewBox="0 0 331 82" fill="none" xmlns="http://www.w3.org/2000/svg">
<path d="M315.903 78.3705C313.188 78.3705 310.766 77.7688 308.637 76.5655C306.539 75.3622 304.904 73.5882 303.731 71.2433C302.559 68.8984 301.973 66.0444 301.973 62.6814C301.973 59.38 302.59 56.5569 303.824 54.212C305.058 51.8672 306.817 50.0622 309.1 48.7972C311.414 47.5322 314.129 46.8997 317.245 46.8997C320.701 46.8997 323.493 47.5322 325.622 48.7972C327.751 50.0314 329.402 52.006 330.574 54.7211L323.215 57.6368C322.814 56.0633 322.105 54.9217 321.087 54.212C320.068 53.5024 318.803 53.1476 317.292 53.1476C315.78 53.1476 314.484 53.5178 313.404 54.2583C312.324 54.968 311.506 56.0324 310.951 57.4517C310.396 58.8401 310.118 60.5679 310.118 62.6351C310.118 64.7949 310.396 66.5998 310.951 68.0499C311.537 69.5 312.386 70.5799 313.497 71.2896C314.638 71.9683 316.042 72.3077 317.708 72.3077C318.603 72.3077 319.42 72.1997 320.161 71.9838C320.901 71.7678 321.549 71.4592 322.105 71.0582C322.66 70.6262 323.092 70.1017 323.401 69.4846C323.709 68.8367 323.863 68.0808 323.863 67.2169V66.7541H316.875V61.4318H330.62V77.9077H325.205L324.604 70.7342L325.9 71.8449C325.252 73.943 324.079 75.5628 322.382 76.7044C320.716 77.8151 318.557 78.3705 315.903 78.3705Z" fill="black"/>
<path d="M296.502 47.3625V77.9077H287.662L278.175 61.3855L275.861 56.8501H275.814L275.999 62.4963V77.9077H268.965V47.3625H277.804L287.292 63.8847L289.606 68.4202H289.652L289.467 62.774V47.3625H296.502Z" fill="black"/>
<path d="M262.191 47.3625V77.9077H254.23V47.3625H262.191Z" fill="black"/>
<path d="M233.97 47.3625C238.753 47.3625 242.409 48.6893 244.939 51.3427C247.5 53.9961 248.78 57.7602 248.78 62.6351C248.78 67.51 247.5 71.2741 244.939 73.9276C242.409 76.581 238.753 77.9077 233.97 77.9077H221.012V47.3625H233.97ZM233.183 71.8912C235.775 71.8912 237.657 71.1199 238.83 69.5772C240.033 68.0037 240.635 65.6896 240.635 62.6351C240.635 59.5806 240.033 57.282 238.83 55.7393C237.657 54.1658 235.775 53.379 233.183 53.379H228.972V71.8912H233.183Z" fill="black"/>
<path d="M214.246 47.3625V77.9077H205.406L195.919 61.3855L193.605 56.8501H193.559L193.744 62.4963V77.9077H186.709V47.3625H195.549L205.036 63.8847L207.35 68.4202H207.396L207.211 62.774V47.3625H214.246Z" fill="black"/>
<path d="M183.157 77.9077H174.965L172.836 71.0119H162.377L160.202 77.9077H152.195L162.932 47.3625H172.466L183.157 77.9077ZM163.858 65.5971H171.355L167.607 53.2402L163.858 65.5971Z" fill="black"/>
<path d="M138.057 47.3625C141.698 47.3625 144.521 48.2265 146.526 49.9543C148.563 51.6512 149.581 53.919 149.581 56.7575C149.581 59.8737 148.578 62.2494 146.572 63.8847C144.567 65.5199 141.744 66.3376 138.103 66.3376L137.363 66.7541H131.3V77.9077H123.479V47.3625H138.057ZM136.946 61.1079C138.489 61.1079 139.646 60.7993 140.417 60.1822C141.189 59.5652 141.574 58.5779 141.574 57.2203C141.574 55.8936 141.189 54.9217 140.417 54.3046C139.646 53.6876 138.489 53.379 136.946 53.379H131.3V61.1079H136.946ZM141.62 62.774L151.386 77.9077H142.592L134.771 64.5326L141.62 62.774Z" fill="black"/>
<path d="M91.8418 77.9077V47.3625H106.698C110.462 47.3934 113.239 48.1185 115.028 49.5377C116.818 50.9261 117.713 52.9471 117.713 55.6005C117.713 57.3283 117.204 58.8247 116.185 60.0897C115.167 61.3238 113.609 62.1106 111.511 62.45V62.4963C113.856 62.8048 115.599 63.6224 116.741 64.9491C117.913 66.245 118.499 67.8185 118.499 69.6698C118.499 72.2923 117.574 74.3287 115.723 75.7788C113.871 77.1981 111.094 77.9077 107.392 77.9077H91.8418ZM99.5244 72.3077H106.05C107.5 72.3077 108.58 72.0146 109.29 71.4284C109.999 70.8422 110.354 69.9937 110.354 68.883C110.354 67.8031 109.999 66.9855 109.29 66.4301C108.58 65.8439 107.5 65.5508 106.05 65.5508H99.5244V72.3077ZM99.5244 59.8583H105.309C108.148 59.8583 109.567 58.7476 109.567 56.5261C109.567 54.3046 108.148 53.1939 105.309 53.1939H99.5244V59.8583Z" fill="black"/>
<path d="M246.881 3.93005V8.18786H236.421V34.4752H231.469V8.18786H221.01V3.93005H246.881Z" fill="black"/>
<path d="M206.235 3.93005C209.505 3.93005 212.097 4.74768 214.01 6.38292C215.954 8.01817 216.925 10.2242 216.925 13.001C216.925 15.8704 215.954 18.0919 214.01 19.6654C212.097 21.2081 209.505 21.9795 206.235 21.9795L205.772 22.2571H198.691V34.4752H193.785V3.93005H206.235ZM205.864 18.1382C207.87 18.1382 209.351 17.7371 210.307 16.9349C211.295 16.1018 211.788 14.8368 211.788 13.1399C211.788 11.4738 211.295 10.2242 210.307 9.39115C209.351 8.55811 207.87 8.14158 205.864 8.14158H198.691V18.1382H205.864ZM208.78 19.1563L218.73 34.4752H213.038L204.522 21.1001L208.78 19.1563Z" fill="black"/>
<path d="M188.37 34.4752H183.14L180.225 26.4687H167.405L164.489 34.4752H159.398L170.922 3.93005H176.846L188.37 34.4752ZM168.793 22.4423H178.836L173.838 8.18786L168.793 22.4423Z" fill="black"/>
<path d="M153.933 3.93005V34.4752H149.351V16.796L149.721 8.37298H149.675L140.373 34.4752H136.254L126.951 8.37298H126.905L127.275 16.796V34.4752H122.693V3.93005H130.052L136.207 21.6092L138.336 28.8752H138.429L140.604 21.6092L146.713 3.93005H153.933Z" fill="black"/>
<path d="M103.413 3.46722C106.159 3.46722 108.534 3.99174 110.54 5.04076C112.545 6.05893 114.242 7.57076 115.631 9.57625L112.299 12.7696C111.126 10.9801 109.799 9.69967 108.319 8.92832C106.868 8.12613 105.141 7.72503 103.135 7.72503C101.654 7.72503 100.435 7.92558 99.4789 8.32668C98.5225 8.72778 97.8128 9.26771 97.35 9.9465C96.9181 10.5944 96.7021 11.3349 96.7021 12.168C96.7021 13.1244 97.0261 13.9575 97.674 14.6671C98.3528 15.3767 99.6023 15.9321 101.423 16.3332L107.624 17.7216C110.586 18.3696 112.684 19.3569 113.918 20.6836C115.153 22.0103 115.77 23.6918 115.77 25.7282C115.77 27.6102 115.261 29.2455 114.242 30.6339C113.224 32.0223 111.805 33.0868 109.985 33.8272C108.195 34.5677 106.082 34.938 103.644 34.938C101.484 34.938 99.5406 34.6603 97.8128 34.1049C96.085 33.5496 94.5732 32.7936 93.2773 31.8372C91.9815 30.8807 90.917 29.7854 90.084 28.5513L93.5087 25.1265C94.1567 26.2064 94.9743 27.1783 95.9616 28.0422C96.9489 28.8752 98.0905 29.5232 99.3864 29.986C100.713 30.4488 102.179 30.6802 103.783 30.6802C105.202 30.6802 106.421 30.5105 107.439 30.1711C108.488 29.8317 109.275 29.338 109.799 28.6901C110.355 28.0113 110.633 27.2091 110.633 26.2835C110.633 25.3888 110.324 24.602 109.707 23.9232C109.121 23.2444 108.01 22.7199 106.375 22.3497L99.6641 20.8224C97.8128 20.4213 96.2856 19.8505 95.0823 19.11C93.879 18.3696 92.9842 17.4748 92.398 16.4258C91.8118 15.3459 91.5187 14.1426 91.5187 12.8159C91.5187 11.0881 91.9815 9.52997 92.9071 8.14156C93.8636 6.72229 95.2365 5.59613 97.0261 4.76308C98.8156 3.89918 100.944 3.46722 103.413 3.46722Z" fill="black"/>
<path d="M74.4646 46.4591C74.3955 50.0325 73.2107 53.563 70.8507 56.1699C67.7772 59.5778 63.9626 61.8648 59.8364 63.6368C45.817 69.6595 31.763 75.5975 17.7227 81.5595C17.6627 81.5849 17.6073 81.6104 17.5435 81.6319C17.2658 81.7229 16.9643 81.709 16.6962 81.5928C16.4272 81.4757 16.2107 81.2636 16.0881 80.9971C16.019 80.8508 15.98 80.6921 15.9734 80.5304C15.9675 80.3688 15.9944 80.2076 16.0523 80.0566C16.1109 79.9055 16.1996 79.7678 16.313 79.6519C16.4262 79.5363 16.5617 79.4447 16.7112 79.3827L31.7324 73.2069C31.8836 73.1451 32.0207 73.0531 32.1351 72.9364C32.2489 72.8198 32.3376 72.6812 32.3958 72.5291C32.4546 72.3767 32.4819 72.214 32.476 72.0507C32.4702 71.8876 32.4309 71.7274 32.3606 71.5802C32.2544 71.3501 32.1436 71.124 32.0348 70.903C31.9001 70.6227 31.6613 70.4059 31.3693 70.2989C31.0774 70.1914 30.7551 70.2017 30.4706 70.3275L8.98292 79.6982C8.69332 79.8247 8.36557 79.8322 8.07049 79.719C7.77657 79.6068 7.53836 79.3838 7.40703 79.0979L7.36011 78.9871C7.29168 78.8417 7.25375 78.6838 7.24866 78.5231C7.24352 78.3627 7.27079 78.2028 7.32882 78.0532C7.38761 77.9033 7.47631 77.7669 7.58951 77.6524C7.7022 77.5378 7.83672 77.4469 7.98512 77.3852L36.7227 65.3281H36.7742C36.8882 65.2829 36.9934 65.218 37.085 65.1365C37.3248 64.954 37.5105 64.7098 37.6221 64.43C37.7668 64.0938 37.7993 63.7199 37.7146 63.3638C37.6308 63.0071 37.434 62.687 37.1535 62.4513C36.8733 62.2159 36.5248 62.0768 36.1596 62.0544C35.7941 62.0321 35.4312 62.1281 35.1246 62.3281L21.7699 68.4277L21.1834 68.7002C20.9207 68.7491 20.6495 68.7224 20.4013 68.6232C20.2331 68.5554 20.0798 68.455 19.9503 68.328C19.8212 68.2009 19.7182 68.0496 19.6472 67.8829C19.5761 67.7159 19.5389 67.5365 19.5378 67.355C19.536 67.1737 19.5701 66.9938 19.6381 66.8258C19.7526 66.5547 19.9515 66.3277 20.2051 66.1786L20.2651 66.1571L20.602 66.017L21.4545 65.6592C32.4314 61.0301 43.4088 56.383 54.3866 51.7179C55.5017 51.2708 56.5627 50.6993 57.5495 50.0143C59.3522 48.6808 59.6807 47.1095 58.7226 45.1543C57.8017 43.276 56.2675 42.6666 54.3156 43.1782C53.0811 43.5035 51.8727 43.9207 50.7004 44.4263C49.8623 44.7809 49.0246 45.1369 48.1873 45.4945C48.1875 45.4926 48.1875 45.4906 48.1873 45.4886C48.1873 45.4886 64.832 36.8297 74.4646 46.4591Z" fill="url(#paint0_linear_141_99)"/>
<path d="M48.1793 45.4918C46.5083 46.2057 44.8386 46.9226 43.1701 47.6426C37.3984 50.1315 31.6299 52.6244 25.7825 54.9205C22.2495 56.3525 18.5285 57.2679 14.7343 57.6382C11.6529 57.8943 8.99382 57.2563 6.79096 55.8479C3.30614 49.5978 11.3596 43.2961 16.567 40.0499C15.5164 41.034 15.3 42.3205 15.9009 43.8593C16.6302 45.7245 17.9597 46.5809 19.9123 46.1547C21.1565 45.8946 22.3715 45.5108 23.5392 45.0089L24.2959 44.6928L25.2083 44.3109L26.8774 43.6122L52.1295 33.047C55.6326 31.7435 59.2549 30.8963 63.0356 31.5662C65.0478 31.8926 66.9641 32.6559 68.6497 33.8023C72.5601 36.6081 74.5492 41.5691 74.4547 46.4499C64.822 36.8179 48.1833 45.4834 48.1833 45.4834" fill="url(#paint1_linear_141_99)"/>
<path d="M78.656 5.77907C74.9645 12.3427 71.41 18.6182 67.8932 24.899L67.2193 24.8227L65.3482 18.4357L64.7154 18.7218C60.3963 20.677 56.6658 22.4243 52.8844 24.0491C51.5636 24.6161 50.2421 25.1825 48.9199 25.7482C46.8778 26.6215 44.8344 27.4933 42.7897 28.3636C40.8658 29.1826 38.9417 30.0012 37.0173 30.8193C31.7261 33.0678 26.4351 35.3181 21.1443 37.57L20.5688 37.8151H20.563L20.5565 37.8183L20.548 37.8222C20.4176 37.8789 20.2873 37.9363 20.157 37.9956C19.1969 38.4313 18.2641 38.9247 17.3636 39.4731C17.0833 39.641 16.8212 39.8376 16.5815 40.0596C11.3774 43.3059 3.32396 49.6075 6.80552 55.8577C4.61114 54.4558 2.86905 52.2888 1.61185 49.4785C-0.869302 43.9387 -0.677689 38.5945 3.4315 33.7658C6.73905 29.8815 11.0359 27.4238 15.6483 25.4855L15.7695 25.4341C23.2131 22.2731 30.6594 19.1185 38.1083 15.9702C41.1571 14.6811 44.2064 13.3935 47.2561 12.1074C50.7702 10.6249 54.2848 9.14397 57.7998 7.66453C59.407 6.99585 59.9316 6.33565 59.0492 4.7213C58.3368 3.4439 57.8109 2.02963 56.9773 0.164368L78.656 5.77907Z" fill="url(#paint2_linear_141_99)"/>
<defs>
<linearGradient id="paint0_linear_141_99" x1="16.9617" y1="82.3916" x2="54.6554" y2="50.5722" gradientUnits="userSpaceOnUse">
<stop stop-color="#2A75BC"/>
<stop offset="1" stop-color="#73CFED"/>
</linearGradient>
<linearGradient id="paint1_linear_141_99" x1="22.1832" y1="56.2834" x2="67.0568" y2="30.012" gradientUnits="userSpaceOnUse">
<stop stop-color="#73CFED"/>
<stop offset="1" stop-color="#2A75BC"/>
</linearGradient>
<linearGradient id="paint2_linear_141_99" x1="39.3238" y1="0.165671" x2="39.3238" y2="55.859" gradientUnits="userSpaceOnUse">
<stop stop-color="#73CFED"/>
<stop offset="1" stop-color="#2A75BC"/>
</linearGradient>
</defs>
</svg>
